<svg width="285" height="354" viewBox="0 0 285 354" fill="none" xmlns="http://www.w3.org/2000/svg">
<path d="M241.748 3.6277H211.858C211.104 3.6277 210.491 3.01454 210.491 2.26097C210.491 1.5074 211.104 0.894531 211.858 0.894531H241.748C242.502 0.894531 243.115 1.50741 243.115 2.26098C243.115 3.01454 242.502 3.6277 241.748 3.6277Z" fill="#3F3D56"/>
<path d="M257.788 18.2058H195.818C195.064 18.2058 194.451 17.5927 194.451 16.8391C194.451 16.0855 195.064 15.4727 195.818 15.4727H257.788C258.541 15.4727 259.154 16.0855 259.154 16.8391C259.154 17.5927 258.541 18.2058 257.788 18.2058Z" fill="#3F3D56"/>
<path d="M56.2088 139.353C55.8721 138.826 53.7501 135.508 52.1779 135.844C49.1977 136.481 50.8143 149.686 46.4818 151.003C45.531 151.292 44.1926 151.04 41.2035 151.839C40.0143 152.157 39.3978 152.419 39.2064 152.945C38.9348 153.692 39.7562 154.32 40.9762 156.14C42.8056 158.87 42.2431 159.376 43.8519 161.333C45.0463 162.785 45.9836 163.27 45.7999 163.907C45.5399 164.809 43.4951 164.422 43.004 165.456C42.5029 166.511 43.9578 168.335 45.2162 169.45C47.5776 171.542 49.9309 171.744 52.086 172.43C54.4281 173.175 57.6311 174.841 60.9468 179.005L87.4447 214.872C85.3078 214.062 81.1441 212.399 75.4645 209.554C70.6739 207.153 65.9246 204.421 61.3478 201.43C59.3742 200.14 57.6495 198.94 56.1001 197.822L56.2573 197.905L55.5004 195.165C55.21 194.077 55.0197 193.188 55.4226 192.473C55.6449 192.09 56.0643 191.695 56.5529 191.238C57.1133 190.715 57.7496 190.123 58.3694 189.3C58.9439 188.56 59.0747 187.901 58.7877 187.348C58.6904 187.159 58.5625 187.026 58.4276 186.928C58.5818 186.684 58.7572 186.396 58.9133 186.049C59.244 185.314 59.325 184.684 59.3835 184.215C59.6236 182.331 59.3184 181.221 58.473 180.915C58.1157 180.786 57.7931 180.845 57.523 180.972C57.5029 180.585 57.4515 180.13 57.3106 179.64C56.8571 178.067 56.226 177.269 55.386 177.203C54.2123 177.11 53.6203 178.407 52.9362 179.906C52.6295 180.572 51.8248 182.346 51.4046 182.347C51.3526 182.347 51.2044 182.315 51.073 182.286C50.713 182.207 50.1701 182.09 49.3227 182.066C48.8478 182.053 48.1304 182.032 47.6917 182.62C47.3007 183.184 47.4936 183.784 47.6711 184.263C47.73 184.421 47.8003 184.609 47.8708 184.836C48.0319 185.356 48.0587 185.636 48.0852 185.907C48.1194 186.26 48.155 186.627 48.408 187.23C48.4294 187.279 48.4489 187.325 48.4689 187.37C48.2311 187.424 47.9818 187.539 47.7724 187.772C46.9843 188.63 47.7195 190.05 48.0696 190.615C48.6991 191.626 49.4968 192.112 50.1383 192.503C50.3001 192.601 50.4591 192.698 50.6127 192.803C51.4086 193.345 52.0688 194.166 52.5977 195.223C51.9721 194.747 51.3738 194.287 50.8122 193.855C48.8009 192.308 46.9098 190.799 45.0662 189.329C43.1705 187.817 41.3142 186.338 39.4257 184.894L39.5448 184.375L39.0885 184.64C36.1106 182.376 33.0434 180.2 29.5998 178.136C29.4587 178.052 29.2917 177.953 29.1195 177.852L28.9556 177.259C28.6652 176.17 28.475 175.281 28.8778 174.566C29.1001 174.183 29.5195 173.789 30.0082 173.331C30.5684 172.808 31.2048 172.216 31.8246 171.393C32.3991 170.654 32.5299 169.994 32.2429 169.441C32.1456 169.253 32.0177 169.119 31.8829 169.021C32.0369 168.777 32.2124 168.489 32.3685 168.142C32.6992 167.407 32.7802 166.777 32.8386 166.309C33.0788 164.424 32.7736 163.314 31.9282 163.008C31.5709 162.879 31.2483 162.938 30.9782 163.065C30.9582 162.678 30.9067 162.224 30.7658 161.733C30.3123 160.16 29.6812 159.362 28.8412 159.296C27.6676 159.203 27.0755 160.5 26.3913 161.999C26.0847 162.665 25.28 164.439 24.8598 164.44C24.8077 164.44 24.6595 164.408 24.5282 164.379C24.1682 164.301 23.6253 164.183 22.778 164.159C22.3029 164.146 21.5857 164.125 21.1468 164.713C20.7559 165.277 20.9488 165.877 21.1264 166.356C21.1852 166.514 21.2555 166.702 21.3261 166.93C21.487 167.449 21.5139 167.729 21.5404 168C21.5746 168.354 21.6101 168.72 21.8632 169.324C21.8846 169.373 21.9042 169.418 21.9241 169.463C21.6863 169.517 21.437 169.632 21.2276 169.865C20.4395 170.723 21.1747 172.143 21.5248 172.708C22.1543 173.719 22.9519 174.205 23.5935 174.596C23.7553 174.695 23.9143 174.791 24.0679 174.896C24.5178 175.202 24.9225 175.602 25.2887 176.075C24.1206 175.681 22.7718 175.356 21.2509 175.217C19.4333 175.051 17.5918 175.173 15.7562 175.573C15.7433 175.435 15.7307 175.299 15.7166 175.149C15.5605 173.46 15.4464 172.76 14.8645 172.103C14.582 171.783 14.1493 171.43 12.9123 171.027C11.1976 170.469 9.72902 170.384 9.31862 170.372C7.26883 170.313 5.4984 170.263 3.89102 171.5C3.58431 171.734 2.65289 172.443 2.14163 173.695C1.87992 174.329 1.83273 174.843 1.79486 175.256C1.75489 175.688 1.72972 175.974 1.48711 176.374C1.33398 176.629 1.14976 176.837 1.00335 177.004C0.720619 177.34 0.189181 177.953 0.634578 178.619C0.741612 178.781 0.876889 178.894 1.03064 178.97C0.949051 179.536 0.998802 180.12 1.27876 180.65C1.5296 181.126 1.96195 181.445 3.12677 182.014C4.90909 182.885 6.34551 183.309 6.63078 183.389C8.47953 183.914 9.40657 184.176 10.4003 184.139C12.515 184.054 14.0512 183.398 14.966 182.188C15.0122 182.129 15.0549 182.069 15.0957 182.009C15.7369 181.058 15.8064 180.063 15.9172 178.48C15.9381 178.174 15.9319 177.821 15.9051 177.372C17.6391 176.969 19.3767 176.832 21.0871 176.988C24.7894 177.327 27.4202 178.904 28.6837 179.662C31.8305 181.548 34.6676 183.539 37.4188 185.61L37.0871 185.802C36.1078 186.359 35.2962 186.769 34.5021 186.56C34.0759 186.442 33.5875 186.137 33.0213 185.78C32.3732 185.371 31.6389 184.906 30.6861 184.515C29.8247 184.147 29.1533 184.187 28.6912 184.605C28.5338 184.747 28.4372 184.905 28.3763 185.06C28.1012 184.973 27.778 184.876 27.4035 184.813C26.608 184.68 25.9785 184.761 25.5103 184.824C23.6267 185.069 22.6304 185.646 22.5486 186.541C22.5145 186.92 22.6533 187.217 22.8446 187.446C22.4758 187.563 22.0489 187.729 21.6106 187.989C20.2033 188.827 19.5918 189.64 19.7412 190.469C19.9491 191.628 21.3538 191.871 22.9771 192.153C23.699 192.281 25.6189 192.609 25.727 193.015C25.7397 193.066 25.7464 193.217 25.7518 193.352C25.7673 193.72 25.791 194.275 25.983 195.1C26.0905 195.563 26.2523 196.262 26.9327 196.538C27.5774 196.773 28.1084 196.434 28.5269 196.141C28.6649 196.044 28.8287 195.928 29.0311 195.802C29.4927 195.515 29.7568 195.418 30.0126 195.323C30.3455 195.201 30.6911 195.073 31.2106 194.675C31.2526 194.642 31.2918 194.612 31.3301 194.581C31.4431 194.797 31.6173 195.009 31.8955 195.153C32.9251 195.698 34.1122 194.626 34.5701 194.144C35.3887 193.279 35.6562 192.384 35.8716 191.664C35.926 191.483 35.9793 191.304 36.0416 191.129C36.4331 190.028 37.2502 189.009 38.4714 188.1L38.7354 187.904L38.9878 186.804C40.6454 188.082 42.2868 189.388 43.9581 190.72C45.808 192.197 47.7077 193.711 49.7272 195.265C52.4049 197.325 55.7363 199.889 60.376 202.92C65.0085 205.946 69.8164 208.713 74.6685 211.144C78.9898 213.309 82.4507 214.8 84.8254 215.758C77.9056 216.221 68.3335 216.77 64.0075 216.848C62.3254 216.878 60.5922 216.852 59.3568 215.688C58.1673 214.568 57.5826 212.528 55.8521 210.398C55.6499 210.149 55.0786 209.464 54.5728 209.585C54.1546 209.685 54.1622 210.245 53.7732 210.344C53.2514 210.478 52.8142 209.578 51.7343 208.732C50.9729 208.135 50.2789 207.868 49.6821 207.639C49.5022 207.57 46.8057 206.552 46.3106 207.293C45.9386 207.849 47.1311 208.915 46.777 209.385C46.4242 209.853 45.1175 208.958 43.1457 209.032C42.7901 209.045 40.5492 209.129 40.2606 209.998C39.7134 211.644 46.661 214.661 46.0573 217.167C45.9248 217.717 45.4145 218.301 44.9445 219.999C44.7575 220.674 44.708 221.052 44.9111 221.298C45.1994 221.647 45.7446 221.425 46.99 221.352C48.8578 221.241 48.9435 221.663 50.3682 221.438C51.4258 221.271 51.934 220.951 52.1938 221.225C52.5615 221.613 51.7813 222.505 52.1472 223.044C52.5205 223.595 53.8354 223.407 54.7458 223.111C56.454 222.556 57.2321 221.459 58.1906 220.599C59.2322 219.665 60.9738 218.573 63.9742 218.147L85.2127 215.913C86.4544 216.408 87.3693 216.746 87.9022 216.943C88.1859 217.047 88.3682 217.112 88.4436 217.146L88.725 216.605L89.0401 217.032C88.9424 216.893 88.8352 216.739 88.7319 216.592L88.8517 216.361L89.6651 216.001C89.5558 215.752 89.4357 215.643 89.1113 215.502L90.7439 215.331C90.2502 215.371 89.656 215.416 89.0208 215.463C88.8871 215.409 88.7228 215.348 88.5175 215.273C88.2784 215.185 87.9542 215.065 87.5659 214.918C81.1245 205.63 67.8755 185.953 62.9439 177.899C61.4007 175.379 59.8972 172.731 60.5596 169.825C61.1974 167.026 63.766 164.325 65.4508 159.809C65.6476 159.281 66.1766 157.806 65.5429 157.148C65.0191 156.604 64.1777 157.114 63.6811 156.613C63.0148 155.942 63.9878 154.479 64.3078 152.091C64.5333 150.407 64.3196 149.118 64.1357 148.011C64.0803 147.677 63.2208 142.688 61.6593 142.597C60.4863 142.529 59.9334 145.283 58.9064 145.166C57.8832 145.048 58.0761 142.273 56.2088 139.353Z" fill="#F2F2F2"/>
<path d="M269.53 308.325L116.698 275.295C111.583 274.191 107.361 268.46 105.942 260.696L70.8402 68.5957C69.6508 62.0848 70.5387 55.343 73.2764 50.0972C76.0141 44.8515 80.0589 42.1404 84.3781 42.6559L238.357 61.1019C243.927 61.7691 248.604 67.9029 249.994 76.3639L283.949 283.048C285.032 289.644 283.949 296.615 281.05 301.697C278.554 306.074 275.014 308.518 271.324 308.518C270.729 308.518 270.129 308.455 269.53 308.325Z" fill="#E6E6E6"/>
<path d="M219.925 87.0404L108.246 76.7604C105.43 76.5012 103.239 75.2072 103.361 73.8761C103.484 72.5449 105.875 71.6732 108.69 71.9323L220.37 82.2123C223.185 82.4715 225.376 83.7649 225.253 85.0961C225.131 86.4272 222.741 87.2996 219.925 87.0404Z" fill="white"/>
<path d="M226.015 116.392L114.335 106.112C111.52 105.853 109.329 104.559 109.451 103.228C109.574 101.896 111.964 101.025 114.78 101.284L226.46 111.564C229.275 111.823 231.465 113.116 231.343 114.448C231.22 115.779 228.831 116.651 226.015 116.392Z" fill="white"/>
<path d="M228.166 141.978L116.486 131.698C113.671 131.439 111.48 130.145 111.602 128.814C111.725 127.482 114.115 126.611 116.931 126.87L228.611 137.15C231.426 137.409 233.616 138.702 233.494 140.034C233.371 141.365 230.982 142.237 228.166 141.978Z" fill="white"/>
<path d="M160.873 129.62C163.676 126.566 167.524 125.537 169.468 127.321C171.411 129.105 170.714 133.027 167.909 136.082C166.805 137.317 165.422 138.271 163.874 138.862L151.834 151.652L145.952 145.874L158.447 133.878C158.904 132.286 159.736 130.825 160.873 129.62Z" fill="#FFB6B6"/>
<path d="M92.2284 132.466C92.2284 132.466 99.2643 126.031 107.684 131.649C116.103 137.268 135.71 151.64 135.71 151.64L149.449 134.601L160.275 144.414C160.275 144.414 141.178 178.05 128.841 170.647C116.503 163.244 88.9603 142.111 90.2109 137.739C91.4614 133.366 92.2284 132.466 92.2284 132.466Z" fill="#6C63FF"/>
<path d="M144.326 289.449L133.116 310.338L123.884 299.164L134.505 284.812L144.326 289.449Z" fill="#FFB6B6"/>
<path d="M137.077 307.452L132.334 333.08C132.334 333.08 129.15 341.968 124.033 332.94C118.916 323.912 109.65 305.233 114.977 301.81C120.304 298.387 126.738 295.621 126.738 295.621L137.077 307.452Z" fill="#2F2E41"/>
<path d="M150.942 312.195L162.769 333.484L147.985 335.258L141.48 318.109L150.942 312.195Z" fill="#FFB6B6"/>
<path d="M88.2586 119.418C88.2586 119.418 87.0759 131.245 85.3019 132.428C83.5278 133.61 106.008 132.428 106.008 132.428L99.4942 119.418H88.2586Z" fill="#FFB6B6"/>
<path d="M112.5 135.987L104.225 129.473H83.9937L70.5184 140.708L79.093 180.624L74.9535 200.139L127.584 201.913L118.122 184.172C118.122 184.172 129.358 172.345 125.809 164.658C122.261 156.97 112.5 135.987 112.5 135.987Z" fill="#6C63FF"/>
<path d="M122.261 197.18L129.949 201.319C129.949 201.319 171.343 240.348 167.795 252.175C164.247 264.002 140.593 297.709 140.593 297.709L129.357 291.795L145.915 255.723L114.278 224.086L131.261 254.023L155.377 317.223L141.184 323.137L104.521 249.218C104.521 249.218 74.3621 228.521 72.588 215.511C70.814 202.502 74.9534 200.136 74.9534 200.136L122.261 197.18Z" fill="#2F2E41"/>
<path d="M162.473 328.461L181.987 346.793C181.987 346.793 187.901 354.48 177.257 353.889C166.612 353.298 145.324 350.932 145.324 344.427C145.324 337.923 146.507 330.826 146.507 330.826L162.473 328.461Z" fill="#2F2E41"/>
<path d="M94.1724 122.374C101.684 122.374 107.773 116.285 107.773 108.773C107.773 101.261 101.684 95.1719 94.1724 95.1719C86.6607 95.1719 80.5714 101.261 80.5714 108.773C80.5714 116.285 86.6607 122.374 94.1724 122.374Z" fill="#FFB6B6"/>
<path d="M153.175 163.042L141.966 197.179C141.667 198.089 140.891 198.76 139.947 198.924L118.511 202.652C116.589 202.986 115 201.157 115.601 199.301L126.795 164.7C127.097 163.766 127.901 163.083 128.871 162.936L150.322 159.671C152.232 159.381 153.778 161.207 153.175 163.042Z" fill="white"/>
<path d="M118.056 203.28C117.144 203.28 116.277 202.89 115.663 202.183C114.925 201.333 114.692 200.186 115.038 199.116L126.232 164.515C126.606 163.361 127.583 162.53 128.782 162.349L150.233 159.084C151.334 158.916 152.422 159.324 153.142 160.175C153.862 161.026 154.084 162.166 153.736 163.224L142.527 197.361C142.16 198.48 141.21 199.302 140.049 199.504L118.612 203.232C118.426 203.264 118.24 203.28 118.056 203.28ZM150.717 160.23C150.616 160.23 150.513 160.237 150.411 160.253L128.96 163.517C128.206 163.632 127.592 164.154 127.358 164.879L116.192 199.39C115.988 200.023 116.055 200.735 116.448 201.272C116.908 201.899 117.656 202.195 118.409 202.067L127.011 200.571C135.639 199.07 142.736 192.935 145.468 184.615L152.592 162.92C152.771 162.373 152.749 161.764 152.465 161.264C152.093 160.605 151.428 160.23 150.717 160.23Z" fill="#3F3D56"/>
<path d="M120.453 189.638C124.595 189.792 127.874 192.054 127.776 194.69C127.678 197.326 124.24 199.338 120.096 199.184C118.44 199.146 116.817 198.711 115.364 197.916L97.8193 197.045L98.4038 188.82L115.637 190.553C117.146 189.868 118.797 189.554 120.453 189.638Z" fill="#FFB6B6"/>
<path d="M73.7712 139.23C73.7712 139.23 83.2328 140.413 84.4155 150.466C85.5981 160.519 87.3722 184.764 87.3722 184.764L109.252 184.173L108.803 198.777C108.803 198.777 70.8144 206.053 68.4491 191.86C66.0837 177.668 64.3096 142.997 68.4491 141.114C72.5885 139.23 73.7712 139.23 73.7712 139.23Z" fill="#6C63FF"/>
<path d="M196.635 44.306L191.768 42.0006C193.764 44.7864 195.484 49.137 196.405 52.5991C197.964 49.3742 200.477 45.4283 202.965 43.0713L197.822 44.3945C200.991 28.861 212.912 17.7095 226.564 17.7095L226.757 17.1484C212.498 17.1484 199.871 28.1454 196.635 44.306Z" fill="#3F3D56"/>
<path d="M219.035 67.9769H188.285C186.98 67.9769 185.919 66.9157 185.919 65.6115C185.919 64.3072 186.98 63.2461 188.285 63.2461H219.035C220.339 63.2461 221.4 64.3072 221.4 65.6115C221.4 66.9157 220.339 67.9769 219.035 67.9769Z" fill="#6C63FF"/>
<path d="M149.132 168.324L128.967 170.023C128.459 170.066 128.01 169.687 127.968 169.179C127.925 168.67 128.304 168.222 128.812 168.179L148.977 166.48C149.485 166.437 149.933 166.816 149.976 167.324C150.019 167.832 149.64 168.281 149.132 168.324Z" fill="#3F3D56"/>
<path d="M147.358 174.234L127.193 175.933C126.685 175.976 126.236 175.597 126.193 175.089C126.151 174.58 126.529 174.132 127.038 174.089L147.203 172.39C147.711 172.347 148.159 172.726 148.202 173.234C148.245 173.743 147.866 174.191 147.358 174.234Z" fill="#3F3D56"/>
<path d="M145.584 180.148L125.419 181.847C124.911 181.89 124.463 181.511 124.42 181.003C124.377 180.494 124.756 180.046 125.264 180.003L145.429 178.304C145.937 178.261 146.386 178.64 146.428 179.148C146.471 179.657 146.093 180.105 145.584 180.148Z" fill="#3F3D56"/>
<path d="M90.5323 113.662L100.047 102.737L98.4613 98.1288L103.569 102.983L106.206 102.267C106.206 102.267 106.183 92.9107 98.7123 92.488C91.2416 92.0654 85.8827 92.8523 85.8827 92.8523C85.8827 92.8523 75.2009 96.1997 74.7832 98.7651C74.3655 101.331 68.3814 104.739 68.3814 104.739C68.3814 104.739 63.1892 108.602 65.6164 115.075C68.0436 121.549 73.5822 129.629 69.7483 133.569C65.9144 137.508 60.4966 140.54 63.1364 142.052C65.7762 143.564 70.5377 136.475 74.8741 139.309C79.2105 142.144 86.538 153.528 93.4114 147.648C100.285 141.769 101.556 134.959 101.556 134.959L90.5864 124.119C90.5864 124.119 83.9407 112.783 90.5323 113.662Z" fill="#2F2E41"/>
<rect width="56" height="55" rx="6" transform="matrix(0.987688 0.156434 0.197144 0.980375 164 172)" fill="white"/>
<rect x="0.592416" y="0.568404" width="55" height="54" rx="5.5" transform="matrix(0.987688 0.156434 0.197144 0.980375 163.895 171.918)" stroke="black" stroke-opacity="0.5"/>
<path d="M182.638 177.803L167.555 175.414L170.566 190.385L185.648 192.774L182.638 177.803ZM183.387 190.604L172.075 188.812L169.817 177.584L181.129 179.376L183.387 190.604Z" fill="black"/>
<path d="M179.62 180.944L172.078 179.75L173.584 187.235L181.125 188.43L179.62 180.944Z" fill="black"/>
<path d="M177.339 224.065L192.422 226.453L189.411 211.483L174.329 209.094L177.339 224.065ZM176.591 211.264L187.902 213.055L190.16 224.283L178.848 222.492L176.591 211.264Z" fill="black"/>
<path d="M186.393 214.628L178.852 213.434L180.357 220.919L187.898 222.113L186.393 214.628Z" fill="black"/>
<path d="M216.573 183.174L201.491 180.785L204.501 195.756L219.584 198.145L216.573 183.174ZM217.322 195.975L206.01 194.183L203.752 182.955L215.064 184.747L217.322 195.975Z" fill="black"/>
<path d="M213.555 186.316L206.014 185.121L207.519 192.606L215.061 193.801L213.555 186.316Z" fill="black"/>
<path d="M196.2 208.937L194.314 208.638L193.185 203.024L195.071 203.323L194.694 201.451L190.924 200.854L192.429 208.339L186.773 207.444L185.268 199.958L183.383 199.66L184.888 207.145L183.003 206.846L180.368 193.747L178.483 193.448L178.859 195.32L171.318 194.125L171.694 195.997L179.236 197.191L179.988 200.934L176.218 200.337L176.594 202.208L180.365 202.805L181.494 208.419L196.576 210.808L196.2 208.937Z" fill="black"/>
<path d="M193.182 212.084L191.297 211.785L192.802 219.271L194.687 219.569L193.182 212.084Z" fill="black"/>
<path d="M172.823 201.609L173.952 207.223L177.723 207.821L177.347 205.949L175.461 205.651L174.709 201.908L172.823 201.609Z" fill="black"/>
<path d="M205.243 226.675L195.816 225.182L195.44 223.311L199.21 223.908L198.834 222.036L193.178 221.141L194.307 226.755L205.619 228.546L205.243 226.675Z" fill="black"/>
<path d="M187.533 193.068L189.419 193.367L189.042 191.495L196.584 192.69L197.713 198.304L184.515 196.213L184.892 198.085L186.777 198.383L187.906 203.997L189.791 204.296L188.662 198.682L198.089 200.175L198.465 202.046L196.58 201.748L196.956 203.619L202.612 204.515L203.365 208.258L199.594 207.66L199.97 209.532L213.168 211.622L212.791 209.751L205.25 208.556L204.497 204.814L208.268 205.411L207.892 203.539L200.351 202.345L198.469 192.988L202.24 193.585L201.863 191.714L188.666 189.624L186.785 180.267L199.982 182.357L199.605 180.486L184.523 178.097L187.533 193.068Z" fill="black"/>
<path d="M193.193 184.91L192.817 183.039L189.046 182.441L190.175 188.055L201.487 189.847L200.358 184.233L198.473 183.934L199.225 187.677L191.684 186.483L191.308 184.611L193.193 184.91Z" fill="black"/>
<path d="M223.723 218.727L221.838 218.429L222.59 222.171L218.82 221.574L218.067 217.832L216.182 217.533L218.063 226.89L219.949 227.188L219.196 223.446L222.967 224.043L224.096 229.657L216.554 228.462L216.931 230.334L226.357 231.827L223.723 218.727Z" fill="black"/>
<path d="M214.669 228.163L207.128 226.969L207.504 228.84L215.046 230.035L214.669 228.163Z" fill="black"/>
<path d="M212.035 215.068L210.15 214.769L210.526 216.64L206.755 216.043L207.132 217.915L210.902 218.512L211.279 220.383L213.164 220.682L212.035 215.068Z" fill="black"/>
<path d="M213.54 222.549L205.999 221.354L204.494 213.869L206.379 214.167L206.003 212.296L198.462 211.102L198.838 212.973L202.608 213.57L202.985 215.441L199.214 214.844L199.59 216.716L203.361 217.313L204.114 221.056L200.343 220.458L200.719 222.33L208.261 223.524L208.637 225.395L210.522 225.694L210.146 223.823L213.917 224.42L213.54 222.549Z" fill="black"/>
<path d="M219.96 200.017L214.304 199.121L214.68 200.992L218.451 201.59L219.58 207.204L215.809 206.606L216.186 208.478L219.956 209.075L221.462 216.56L223.347 216.859L219.96 200.017Z" fill="black"/>
<path d="M197.329 214.549L195.443 214.25L196.572 219.864L198.458 220.163L197.329 214.549Z" fill="black"/>
<path d="M208.648 198.222L201.107 197.027L201.483 198.899L209.024 200.093L208.648 198.222Z" fill="black"/>
<path d="M216.942 203.163L209.401 201.969L210.53 207.583L212.415 207.881L211.662 204.139L217.318 205.035L216.942 203.163Z" fill="black"/>
<path d="M216.562 210.353L214.677 210.055L215.806 215.669L217.691 215.967L216.562 210.353Z" fill="black"/>
</svg>
