<svg width="42" height="50" viewBox="0 0 42 50" fill="none" xmlns="http://www.w3.org/2000/svg">
<path d="M21 0C18.793 0 17 1.79297 17 4C17 6.20703 18.793 8 21 8C23.207 8 25 6.20703 25 4C25 1.79297 23.207 0 21 0ZM15.375 6.09375C10.8047 8.05078 8 12.457 8 18C8 29 4.19922 31.7617 1.9375 33.4062C0.933594 34.1328 0 34.8086 0 36C0 40.207 6.28125 42 21 42C35.7188 42 42 40.207 42 36C42 34.8086 41.0664 34.1328 40.0625 33.4062C37.8008 31.7617 34 29 34 18C34 12.4414 31.1992 8.04688 26.625 6.09375C25.7695 8.36719 23.5664 10 21 10C18.4336 10 16.2305 8.36328 15.375 6.09375ZM15 43.875C15 43.9141 15 43.9609 15 44C15 47.3086 17.6914 50 21 50C24.3086 50 27 47.3086 27 44C27 43.9609 27 43.9141 27 43.875C25.1172 43.9531 23.1172 44 21 44C18.8828 44 16.8828 43.9531 15 43.875Z" fill="#D9D9D9"/>
</svg>
