<svg width="50" height="50" viewBox="0 0 50 50" fill="none" xmlns="http://www.w3.org/2000/svg">
<path d="M25 0C22.793 0 21 1.79297 21 4C21 6.20703 22.793 8 25 8C27.207 8 29 6.20703 29 4C29 1.79297 27.207 0 25 0ZM19.375 6.09375C14.8047 8.05078 12 12.457 12 18C12 29 8.19922 31.7617 5.9375 33.4062C4.93359 34.1328 4 34.8086 4 36C4 40.207 10.2812 42 25 42C39.7188 42 46 40.207 46 36C46 34.8086 45.0664 34.1328 44.0625 33.4062C41.8008 31.7617 38 29 38 18C38 12.4414 35.1992 8.04688 30.625 6.09375C29.7695 8.36719 27.5664 10 25 10C22.4336 10 20.2305 8.36328 19.375 6.09375ZM19 43.875C19 43.9141 19 43.9609 19 44C19 47.3086 21.6914 50 25 50C28.3086 50 31 47.3086 31 44C31 43.9609 31 43.9141 31 43.875C29.1172 43.9531 27.1172 44 25 44C22.8828 44 20.8828 43.9531 19 43.875Z" fill="#D9D9D9"/>
<circle cx="37" cy="12" r="6" fill="#6C63FF"/>
</svg>
